<svg width="14" height="13" viewBox="0 0 14 13" fill="none" xmlns="http://www.w3.org/2000/svg">
<g clip-path="url(#clip0_649_2419)">
<path fill-rule="evenodd" clip-rule="evenodd" d="M2.26855 1.58353V5.07246L7.78167 10.3979L11.3936 6.90897L5.88043 1.58353H2.26855ZM1.48096 1.58353C1.48096 1.38176 1.56393 1.18825 1.71164 1.04558C1.85934 0.902907 2.05966 0.822754 2.26855 0.822754H5.88043C6.0893 0.822797 6.28959 0.902978 6.43726 1.04566L11.9504 6.3711C12.098 6.51377 12.181 6.70724 12.181 6.90897C12.181 7.1107 12.098 7.30418 11.9504 7.44684L8.3385 10.9358C8.1908 11.0784 7.99051 11.1585 7.78167 11.1585C7.57283 11.1585 7.37254 11.0784 7.22485 10.9358L1.71172 5.61033C1.56401 5.46769 1.481 5.27421 1.48096 5.07246V1.58353Z" fill="white"/>
<path fill-rule="evenodd" clip-rule="evenodd" d="M4.23754 3.86579C4.34198 3.86579 4.44214 3.82572 4.51599 3.75438C4.58984 3.68304 4.63133 3.58629 4.63133 3.4854C4.63133 3.38452 4.58984 3.28777 4.51599 3.21643C4.44214 3.14509 4.34198 3.10502 4.23754 3.10502C4.1331 3.10502 4.03293 3.14509 3.95908 3.21643C3.88523 3.28777 3.84374 3.38452 3.84374 3.4854C3.84374 3.58629 3.88523 3.68304 3.95908 3.75438C4.03293 3.82572 4.1331 3.86579 4.23754 3.86579V3.86579ZM4.23754 4.62657C4.55086 4.62657 4.85135 4.50634 5.0729 4.29233C5.29445 4.07832 5.41892 3.78806 5.41892 3.4854C5.41892 3.18275 5.29445 2.89249 5.0729 2.67848C4.85135 2.46447 4.55086 2.34424 4.23754 2.34424C3.92421 2.34424 3.62372 2.46447 3.40217 2.67848C3.18062 2.89249 3.05615 3.18275 3.05615 3.4854C3.05615 3.78806 3.18062 4.07832 3.40217 4.29233C3.62372 4.50634 3.92421 4.62657 4.23754 4.62657V4.62657Z" fill="white"/>
</g>
<defs>
<clipPath id="clip0_649_2419">
<rect width="12.6014" height="12.1724" fill="white" transform="translate(0.693359 0.0620117)"/>
</clipPath>
</defs>
</svg>
