<svg width="19" height="19" viewBox="0 0 19 19" fill="none" xmlns="http://www.w3.org/2000/svg">
<g clip-path="url(#clip0_645_43)">
<path fill-rule="evenodd" clip-rule="evenodd" d="M6.9104 6.38527L9.3908 1.47103C9.43843 1.37217 9.51287 1.28868 9.60564 1.23005C9.6984 1.17142 9.80576 1.14001 9.9155 1.1394C10.1233 1.1394 10.3312 1.24957 10.4436 1.47103L12.924 6.38527L18.4867 7.17573C18.6254 7.19753 18.7523 7.26648 18.846 7.37097C18.9397 7.47545 18.9946 7.60906 19.0012 7.74926C19.009 7.84259 18.9957 7.93647 18.9622 8.02395C18.9288 8.11143 18.8762 8.19028 18.8081 8.25466L14.807 12.0661L15.7497 17.438C15.8383 17.9412 15.3408 18.3353 14.9024 18.1104L9.9155 15.5482L4.93085 18.1104C4.87871 18.1375 4.82282 18.1566 4.76503 18.1672C4.37775 18.2353 4.00637 17.8787 4.0836 17.438L5.02625 12.0661L1.02626 8.25466C0.964279 8.19573 0.915061 8.1247 0.881655 8.04597C0.848248 7.96724 0.831365 7.88249 0.832051 7.79696C0.832343 7.67613 0.865306 7.55761 0.927451 7.45398C0.972197 7.3791 1.03319 7.31522 1.10592 7.26707C1.17865 7.21891 1.26126 7.18769 1.34767 7.17573L6.9104 6.38527ZM9.9155 14.2308C10.0064 14.2308 10.0972 14.2512 10.179 14.2944L14.3652 16.4454L13.577 11.9514C13.5585 11.848 13.5657 11.7415 13.5979 11.6415C13.6302 11.5415 13.6866 11.4509 13.7622 11.3779L17.0626 8.23194L12.4606 7.57777C12.3653 7.56338 12.275 7.52611 12.1972 7.46914C12.1195 7.41218 12.0567 7.33722 12.0143 7.25069L9.91777 3.09624L9.9155 3.09965V14.2297V14.2308Z" fill="#FDB820"/>
</g>
<defs>
<clipPath id="clip0_645_43">
<rect width="18.1714" height="18.1714" fill="white" transform="translate(0.828125 0.571533)"/>
</clipPath>
</defs>
</svg>
