<svg width="18" height="18" viewBox="0 0 18 18" fill="none" xmlns="http://www.w3.org/2000/svg">
<path fill-rule="evenodd" clip-rule="evenodd" d="M2.55168 2.46208V7.45973L10.18 15.0881L15.1777 10.0904L7.54933 2.46208H2.55168ZM1.46191 2.46208C1.46191 2.17305 1.57673 1.89587 1.7811 1.6915C1.98547 1.48713 2.26265 1.37231 2.55168 1.37231H7.54933C7.83833 1.37238 8.11547 1.48723 8.31979 1.69161L15.9481 9.31995C16.1524 9.52431 16.2672 9.80145 16.2672 10.0904C16.2672 10.3794 16.1524 10.6565 15.9481 10.8609L10.9505 15.8585C10.7461 16.0628 10.469 16.1776 10.18 16.1776C9.89105 16.1776 9.61391 16.0628 9.40955 15.8585L1.78121 8.23019C1.57683 8.02587 1.46198 7.74873 1.46191 7.45973V2.46208Z" fill="white"/>
<path fill-rule="evenodd" clip-rule="evenodd" d="M5.27624 5.73128C5.42076 5.73128 5.55935 5.67387 5.66153 5.57169C5.76372 5.4695 5.82113 5.33091 5.82113 5.1864C5.82113 5.04189 5.76372 4.9033 5.66153 4.80111C5.55935 4.69893 5.42076 4.64152 5.27624 4.64152C5.13173 4.64152 4.99314 4.69893 4.89096 4.80111C4.78877 4.9033 4.73136 5.04189 4.73136 5.1864C4.73136 5.33091 4.78877 5.4695 4.89096 5.57169C4.99314 5.67387 5.13173 5.73128 5.27624 5.73128ZM5.27624 6.82104C5.70978 6.82104 6.12556 6.64882 6.43211 6.34227C6.73867 6.03571 6.91089 5.61994 6.91089 5.1864C6.91089 4.75287 6.73867 4.33709 6.43211 4.03053C6.12556 3.72398 5.70978 3.55176 5.27624 3.55176C4.84271 3.55176 4.42693 3.72398 4.12038 4.03053C3.81382 4.33709 3.6416 4.75287 3.6416 5.1864C3.6416 5.61994 3.81382 6.03571 4.12038 6.34227C4.42693 6.64882 4.84271 6.82104 5.27624 6.82104Z" fill="white"/>
</svg>
