<svg width="18" height="18" viewBox="0 0 18 18" fill="none" xmlns="http://www.w3.org/2000/svg">
<path fill-rule="evenodd" clip-rule="evenodd" d="M2.17179 2.46208V7.45973L9.80013 15.0881L14.7978 10.0904L7.16944 2.46208H2.17179ZM1.08203 2.46208C1.08203 2.17305 1.19685 1.89587 1.40122 1.6915C1.60559 1.48713 1.88277 1.37231 2.17179 1.37231H7.16944C7.45844 1.37238 7.73558 1.48723 7.93991 1.69161L15.5682 9.31995C15.7725 9.52431 15.8873 9.80145 15.8873 10.0904C15.8873 10.3794 15.7725 10.6565 15.5682 10.8609L10.5706 15.8585C10.3662 16.0628 10.0891 16.1776 9.80013 16.1776C9.51116 16.1776 9.23403 16.0628 9.02967 15.8585L1.40133 8.23019C1.19695 8.02587 1.08209 7.74873 1.08203 7.45973V2.46208Z" fill="white"/>
<path fill-rule="evenodd" clip-rule="evenodd" d="M4.89636 5.73128C5.04087 5.73128 5.17947 5.67387 5.28165 5.57169C5.38384 5.4695 5.44124 5.33091 5.44124 5.1864C5.44124 5.04189 5.38384 4.9033 5.28165 4.80111C5.17947 4.69893 5.04087 4.64152 4.89636 4.64152C4.75185 4.64152 4.61326 4.69893 4.51107 4.80111C4.40889 4.9033 4.35148 5.04189 4.35148 5.1864C4.35148 5.33091 4.40889 5.4695 4.51107 5.57169C4.61326 5.67387 4.75185 5.73128 4.89636 5.73128ZM4.89636 6.82104C5.3299 6.82104 5.74567 6.64882 6.05223 6.34227C6.35878 6.03571 6.531 5.61994 6.531 5.1864C6.531 4.75287 6.35878 4.33709 6.05223 4.03053C5.74567 3.72398 5.3299 3.55176 4.89636 3.55176C4.46283 3.55176 4.04705 3.72398 3.74049 4.03053C3.43394 4.33709 3.26172 4.75287 3.26172 5.1864C3.26172 5.61994 3.43394 6.03571 3.74049 6.34227C4.04705 6.64882 4.46283 6.82104 4.89636 6.82104Z" fill="white"/>
</svg>
