<svg width="21" height="21" viewBox="0 0 21 21" fill="none" xmlns="http://www.w3.org/2000/svg">
<g clip-path="url(#clip0_650_2446)">
<path fill-rule="evenodd" clip-rule="evenodd" d="M0.283203 2.19712C0.283203 2.02933 0.349859 1.8684 0.468506 1.74976C0.587154 1.63111 0.748075 1.56445 0.915868 1.56445H2.81386C2.95499 1.56449 3.09205 1.61171 3.20325 1.69861C3.31444 1.7855 3.3934 1.90708 3.42755 2.04401L3.94001 4.09511H18.6305C18.7234 4.0952 18.8151 4.11574 18.8992 4.15528C18.9832 4.19482 19.0576 4.25239 19.1169 4.32389C19.1762 4.39539 19.219 4.47908 19.2423 4.569C19.2656 4.65893 19.2689 4.75288 19.2518 4.84419L17.3538 14.9668C17.3266 15.1118 17.2497 15.2427 17.1363 15.337C17.0228 15.4313 16.88 15.4829 16.7325 15.4831H5.34452C5.19703 15.4829 5.05421 15.4313 4.94077 15.337C4.82733 15.2427 4.75039 15.1118 4.72325 14.9668L2.82652 4.86317L2.32038 2.82978H0.915868C0.748075 2.82978 0.587154 2.76313 0.468506 2.64448C0.349859 2.52583 0.283203 2.36491 0.283203 2.19712ZM4.20826 5.36044L5.86964 14.2178H16.2074L17.8688 5.36044H4.20826ZM6.60985 15.4831C5.93868 15.4831 5.295 15.7497 4.82041 16.2243C4.34582 16.6989 4.07919 17.3426 4.07919 18.0137C4.07919 18.6849 4.34582 19.3286 4.82041 19.8032C5.295 20.2778 5.93868 20.5444 6.60985 20.5444C7.28103 20.5444 7.92471 20.2778 8.3993 19.8032C8.87389 19.3286 9.14052 18.6849 9.14052 18.0137C9.14052 17.3426 8.87389 16.6989 8.3993 16.2243C7.92471 15.7497 7.28103 15.4831 6.60985 15.4831ZM15.4672 15.4831C14.796 15.4831 14.1523 15.7497 13.6777 16.2243C13.2031 16.6989 12.9365 17.3426 12.9365 18.0137C12.9365 18.6849 13.2031 19.3286 13.6777 19.8032C14.1523 20.2778 14.796 20.5444 15.4672 20.5444C16.1383 20.5444 16.782 20.2778 17.2566 19.8032C17.7312 19.3286 17.9978 18.6849 17.9978 18.0137C17.9978 17.3426 17.7312 16.6989 17.2566 16.2243C16.782 15.7497 16.1383 15.4831 15.4672 15.4831ZM6.60985 16.7484C6.27427 16.7484 5.95243 16.8817 5.71513 17.119C5.47784 17.3563 5.34452 17.6782 5.34452 18.0137C5.34452 18.3493 5.47784 18.6712 5.71513 18.9085C5.95243 19.1458 6.27427 19.2791 6.60985 19.2791C6.94544 19.2791 7.26728 19.1458 7.50458 18.9085C7.74187 18.6712 7.87519 18.3493 7.87519 18.0137C7.87519 17.6782 7.74187 17.3563 7.50458 17.119C7.26728 16.8817 6.94544 16.7484 6.60985 16.7484ZM15.4672 16.7484C15.1316 16.7484 14.8097 16.8817 14.5724 17.119C14.3351 17.3563 14.2018 17.6782 14.2018 18.0137C14.2018 18.3493 14.3351 18.6712 14.5724 18.9085C14.8097 19.1458 15.1316 19.2791 15.4672 19.2791C15.8028 19.2791 16.1246 19.1458 16.3619 18.9085C16.5992 18.6712 16.7325 18.3493 16.7325 18.0137C16.7325 17.6782 16.5992 17.3563 16.3619 17.119C16.1246 16.8817 15.8028 16.7484 15.4672 16.7484Z" fill="#FF7634"/>
<path fill-rule="evenodd" clip-rule="evenodd" d="M11.0383 6.62573C11.2061 6.62573 11.367 6.69239 11.4857 6.81104C11.6043 6.92968 11.671 7.0906 11.671 7.2584V9.15639H13.569C13.7368 9.15639 13.8977 9.22305 14.0163 9.3417C14.135 9.46034 14.2017 9.62126 14.2017 9.78906C14.2017 9.95685 14.135 10.1178 14.0163 10.2364C13.8977 10.3551 13.7368 10.4217 13.569 10.4217H11.671V12.3197C11.671 12.4875 11.6043 12.6484 11.4857 12.7671C11.367 12.8857 11.2061 12.9524 11.0383 12.9524C10.8705 12.9524 10.7096 12.8857 10.591 12.7671C10.4723 12.6484 10.4057 12.4875 10.4057 12.3197V10.4217H8.50767C8.33987 10.4217 8.17895 10.3551 8.0603 10.2364C7.94166 10.1178 7.875 9.95685 7.875 9.78906C7.875 9.62126 7.94166 9.46034 8.0603 9.3417C8.17895 9.22305 8.33987 9.15639 8.50767 9.15639H10.4057V7.2584C10.4057 7.0906 10.4723 6.92968 10.591 6.81104C10.7096 6.69239 10.8705 6.62573 11.0383 6.62573Z" fill="#FF7634"/>
</g>
<defs>
<clipPath id="clip0_650_2446">
<rect width="20.2453" height="20.2453" fill="white" transform="translate(0.283203 0.299072)"/>
</clipPath>
</defs>
</svg>
