<svg width="17" height="17" viewBox="0 0 17 17" fill="none" xmlns="http://www.w3.org/2000/svg">
<path fill-rule="evenodd" clip-rule="evenodd" d="M2.125 2.125V6.99763L9.5625 14.4351L14.4351 9.5625L6.99763 2.125H2.125ZM1.0625 2.125C1.0625 1.84321 1.17444 1.57296 1.3737 1.3737C1.57296 1.17444 1.84321 1.0625 2.125 1.0625H6.99763C7.2794 1.06256 7.5496 1.17454 7.74881 1.37381L15.1863 8.81131C15.3855 9.01056 15.4974 9.28076 15.4974 9.5625C15.4974 9.84424 15.3855 10.1144 15.1863 10.3137L10.3137 15.1863C10.1144 15.3855 9.84424 15.4974 9.5625 15.4974C9.28076 15.4974 9.01056 15.3855 8.81131 15.1863L1.37381 7.74881C1.17454 7.5496 1.06256 7.2794 1.0625 6.99763V2.125Z" fill="white"/>
<path fill-rule="evenodd" clip-rule="evenodd" d="M4.78125 5.3125C4.92215 5.3125 5.05727 5.25653 5.1569 5.1569C5.25653 5.05727 5.3125 4.92215 5.3125 4.78125C5.3125 4.64035 5.25653 4.50523 5.1569 4.4056C5.05727 4.30597 4.92215 4.25 4.78125 4.25C4.64035 4.25 4.50523 4.30597 4.4056 4.4056C4.30597 4.50523 4.25 4.64035 4.25 4.78125C4.25 4.92215 4.30597 5.05727 4.4056 5.1569C4.50523 5.25653 4.64035 5.3125 4.78125 5.3125V5.3125ZM4.78125 6.375C5.20394 6.375 5.60932 6.20709 5.9082 5.9082C6.20709 5.60932 6.375 5.20394 6.375 4.78125C6.375 4.35856 6.20709 3.95318 5.9082 3.6543C5.60932 3.35541 5.20394 3.1875 4.78125 3.1875C4.35856 3.1875 3.95318 3.35541 3.6543 3.6543C3.35541 3.95318 3.1875 4.35856 3.1875 4.78125C3.1875 5.20394 3.35541 5.60932 3.6543 5.9082C3.95318 6.20709 4.35856 6.375 4.78125 6.375V6.375Z" fill="white"/>
</svg>
